<?xml version="1.0" encoding="utf-8"?>
<!-- Generator: Adobe Illustrator 16.0.0, SVG Export Plug-In . SVG Version: 6.00 Build 0)  -->
<!DOCTYPE svg PUBLIC "-//W3C//DTD SVG 1.1//EN" "http://www.w3.org/Graphics/SVG/1.1/DTD/svg11.dtd">
<svg version="1.1" id="Layer_1" xmlns="http://www.w3.org/2000/svg" xmlns:xlink="http://www.w3.org/1999/xlink" x="0px" y="0px"
	 width="265px" height="148px" viewBox="0 0 265 148" enable-background="new 0 0 265 148" xml:space="preserve">
<g>
	<rect x="39.707" y="92.724" fill="#FFFFFF" width="158.097" height="21.206"/>
	<rect x="39.707" y="-0.745" fill="#FFC70B" width="226.14" height="149.591"/>
	<polygon opacity="0.2" points="221.729,148.846 215.521,148.846 173.882,-0.745 188.538,-0.745 	"/>
	<polygon fill="#29393B" points="221.846,149.59 67.961,149.59 67.961,-0.745 185.337,-0.745 	"/>
	<g>
		<polygon fill="#83CFCE" points="147.403,4.094 156.716,6.482 154.796,12.593 158.454,16.037 153.975,20.955 130.744,16.75 		"/>
		<polygon fill="#5CA4A0" points="154.796,12.593 158.454,16.037 153.975,20.955 130.744,16.75 		"/>
	</g>
	<g>
		<polygon fill="#83CFCE" points="228.584,15.985 226.61,10.254 230.545,9.129 231.107,6.004 235.296,6.641 241.163,20.323 		"/>
		<polygon fill="#5CA4A0" points="230.545,9.129 231.107,6.004 235.296,6.641 241.163,20.323 		"/>
	</g>
	<polygon fill="#FFC70B" points="57.472,30.574 57.004,13.387 45.471,9.558 	"/>
	<polygon fill="#ED237C" points="53.468,37.489 46.784,32.234 48.667,26.599 	"/>
	<polygon fill="#ED237C" points="58.113,125.487 52.289,131.67 54.996,136.965 	"/>
	<g>
		<path fill="#29393B" d="M234.804,64.301c0,1.185-0.112,2.251-0.336,3.2s-0.604,1.756-1.14,2.422
			c-0.536,0.666-1.237,1.174-2.105,1.524s-1.939,0.525-3.214,0.525c-0.407,0-0.811-0.03-1.211-0.091s-0.767-0.138-1.099-0.232
			c-0.332-0.094-0.62-0.195-0.864-0.303c-0.244-0.107-0.407-0.205-0.488-0.292c-0.082-0.087-0.149-0.178-0.204-0.272
			c-0.054-0.094-0.102-0.219-0.142-0.374c-0.041-0.155-0.068-0.346-0.082-0.575s-0.021-0.518-0.021-0.868
			c0-0.458,0.011-0.844,0.031-1.161c0.021-0.316,0.054-0.565,0.102-0.747c0.047-0.182,0.115-0.309,0.203-0.383
			c0.088-0.074,0.2-0.111,0.336-0.111c0.122,0,0.265,0.044,0.427,0.131c0.163,0.088,0.347,0.179,0.55,0.272
			c0.203,0.094,0.44,0.185,0.712,0.272c0.271,0.088,0.59,0.131,0.956,0.131s0.688-0.05,0.967-0.151
			c0.277-0.101,0.508-0.276,0.691-0.525c0.183-0.249,0.322-0.582,0.417-0.999s0.143-0.956,0.143-1.615V46.134
			c0-0.134,0.044-0.252,0.132-0.353s0.23-0.185,0.428-0.252c0.196-0.067,0.471-0.118,0.823-0.151c0.353-0.033,0.787-0.05,1.303-0.05
			c0.515,0,0.942,0.017,1.281,0.05c0.339,0.034,0.613,0.084,0.824,0.151c0.21,0.067,0.359,0.151,0.447,0.252
			s0.133,0.219,0.133,0.353V64.301z"/>
		<path fill="#29393B" d="M256.104,63.736c0,1.373-0.258,2.577-0.773,3.613s-1.214,1.901-2.096,2.594
			c-0.882,0.693-1.912,1.215-3.092,1.564s-2.441,0.525-3.784,0.525c-0.909,0-1.753-0.074-2.533-0.222
			c-0.779-0.148-1.468-0.326-2.064-0.535s-1.096-0.427-1.495-0.656c-0.4-0.229-0.688-0.431-0.865-0.605
			c-0.176-0.175-0.302-0.427-0.376-0.757c-0.074-0.33-0.112-0.804-0.112-1.423c0-0.417,0.014-0.767,0.041-1.05
			s0.071-0.511,0.132-0.686c0.062-0.175,0.143-0.299,0.244-0.374c0.103-0.074,0.221-0.111,0.356-0.111
			c0.189,0,0.458,0.111,0.804,0.333c0.346,0.222,0.79,0.467,1.332,0.736c0.543,0.27,1.19,0.515,1.943,0.737
			c0.753,0.222,1.624,0.333,2.614,0.333c0.65,0,1.233-0.078,1.749-0.232c0.516-0.154,0.953-0.374,1.313-0.656
			c0.359-0.283,0.634-0.633,0.824-1.05c0.189-0.417,0.284-0.881,0.284-1.393c0-0.592-0.162-1.1-0.488-1.524
			c-0.325-0.424-0.749-0.8-1.271-1.13c-0.521-0.33-1.115-0.639-1.779-0.929c-0.665-0.289-1.35-0.595-2.055-0.918
			c-0.706-0.323-1.391-0.689-2.055-1.1c-0.665-0.41-1.259-0.901-1.78-1.474c-0.522-0.572-0.946-1.248-1.271-2.029
			c-0.326-0.78-0.488-1.716-0.488-2.806c0-1.251,0.233-2.352,0.701-3.3c0.469-0.949,1.099-1.736,1.893-2.362
			c0.793-0.626,1.729-1.093,2.808-1.403s2.221-0.464,3.428-0.464c0.624,0,1.247,0.047,1.871,0.141
			c0.624,0.094,1.207,0.222,1.75,0.384c0.542,0.161,1.023,0.343,1.444,0.545c0.42,0.202,0.698,0.37,0.834,0.504
			c0.136,0.135,0.228,0.25,0.274,0.343c0.048,0.094,0.089,0.219,0.122,0.374c0.034,0.155,0.058,0.35,0.071,0.585
			s0.021,0.528,0.021,0.878c0,0.391-0.01,0.72-0.03,0.989c-0.021,0.27-0.055,0.491-0.102,0.666
			c-0.048,0.175-0.115,0.303-0.204,0.384c-0.088,0.081-0.206,0.121-0.355,0.121s-0.387-0.094-0.712-0.283
			c-0.326-0.188-0.726-0.394-1.2-0.616c-0.476-0.222-1.024-0.424-1.648-0.605s-1.309-0.272-2.055-0.272
			c-0.583,0-1.092,0.07-1.525,0.212c-0.435,0.141-0.797,0.336-1.089,0.585s-0.509,0.548-0.65,0.898
			c-0.143,0.35-0.214,0.72-0.214,1.11c0,0.579,0.159,1.08,0.478,1.504c0.319,0.424,0.746,0.801,1.282,1.13
			c0.535,0.33,1.143,0.64,1.82,0.929c0.679,0.29,1.37,0.595,2.075,0.918c0.705,0.323,1.397,0.69,2.075,1.1
			c0.678,0.411,1.282,0.902,1.811,1.474c0.529,0.572,0.956,1.245,1.282,2.019C255.94,61.775,256.104,62.687,256.104,63.736z"/>
	</g>
	<g>
		<g>
			<path fill="#29393B" d="M37.896,92.959v2.529h2.95v-2.529h0.796v6.047h-0.796v-2.835h-2.95v2.835h-0.788v-6.047H37.896z"/>
			<path fill="#29393B" d="M43.794,92.959v6.047h-0.788v-6.047H43.794z"/>
			<path fill="#29393B" d="M45.168,99.006v-6.047h0.86l1.955,3.06c0.452,0.708,0.805,1.346,1.095,1.965l0.018-0.01
				c-0.072-0.807-0.09-1.543-0.09-2.485v-2.529h0.742v6.047h-0.796l-1.936-3.068c-0.425-0.673-0.833-1.364-1.14-2.019l-0.027,0.009
				c0.045,0.763,0.063,1.489,0.063,2.494v2.584H45.168z"/>
			<path fill="#29393B" d="M51.12,93.039c0.48-0.071,1.05-0.125,1.674-0.125c1.131,0,1.936,0.26,2.47,0.753
				c0.543,0.494,0.859,1.193,0.859,2.172c0,0.986-0.308,1.794-0.877,2.351c-0.57,0.565-1.511,0.87-2.697,0.87
				c-0.561,0-1.031-0.026-1.43-0.071V93.039z M51.908,98.387c0.199,0.036,0.488,0.045,0.796,0.045c1.683,0,2.597-0.934,2.597-2.566
				c0.009-1.426-0.805-2.332-2.47-2.332c-0.407,0-0.715,0.035-0.923,0.08V98.387z"/>
			<path fill="#29393B" d="M57.932,92.959v6.047h-0.788v-6.047H57.932z"/>
			<path fill="#29393B" d="M60.527,99.365l2.525-6.505h0.615l-2.534,6.505H60.527z"/>
			<path fill="#29393B" d="M67.032,92.959v3.579c0,1.355,0.606,1.93,1.42,1.93c0.905,0,1.484-0.593,1.484-1.93v-3.579h0.796v3.525
				c0,1.857-0.986,2.62-2.308,2.62c-1.249,0-2.189-0.709-2.189-2.584v-3.562H67.032z"/>
			<path fill="#29393B" d="M72.097,93.039c0.398-0.08,0.968-0.125,1.511-0.125c0.841,0,1.384,0.152,1.765,0.493
				c0.308,0.27,0.479,0.682,0.479,1.148c0,0.799-0.507,1.328-1.149,1.543v0.027c0.471,0.161,0.751,0.592,0.896,1.22
				c0.199,0.844,0.344,1.427,0.471,1.66h-0.814c-0.1-0.171-0.235-0.69-0.407-1.444c-0.181-0.835-0.507-1.148-1.222-1.176h-0.742
				v2.62h-0.788V93.039z M72.884,95.794h0.805c0.841,0,1.375-0.458,1.375-1.148c0-0.78-0.57-1.122-1.403-1.131
				c-0.38,0-0.651,0.036-0.778,0.072V95.794z"/>
			<path fill="#29393B" d="M76.963,93.039c0.48-0.071,1.05-0.125,1.674-0.125c1.131,0,1.936,0.26,2.47,0.753
				c0.543,0.494,0.859,1.193,0.859,2.172c0,0.986-0.308,1.794-0.877,2.351c-0.57,0.565-1.511,0.87-2.697,0.87
				c-0.561,0-1.031-0.026-1.43-0.071V93.039z M77.751,98.387c0.199,0.036,0.488,0.045,0.796,0.045c1.683,0,2.597-0.934,2.597-2.566
				c0.009-1.426-0.805-2.332-2.47-2.332c-0.407,0-0.715,0.035-0.923,0.08V98.387z"/>
			<path fill="#29393B" d="M83.775,92.959v3.579c0,1.355,0.606,1.93,1.42,1.93c0.905,0,1.484-0.593,1.484-1.93v-3.579h0.796v3.525
				c0,1.857-0.986,2.62-2.308,2.62c-1.249,0-2.189-0.709-2.189-2.584v-3.562H83.775z"/>
		</g>
	</g>
	<rect y="-0.745" fill="#29393B" width="71.75" height="149.591"/>
	<g>
		<path fill="#F7D223" d="M157.81,41.968c-0.21,4.914-7.681,4.958-7.657,0C150.178,37.013,157.6,37.048,157.81,41.968
			c0.088,2.089,3.347,2.1,3.261,0c-0.167-3.846-3.116-7.085-7.09-7.085c-3.848,0-7.085,3.235-7.085,7.085
			c0,3.852,3.237,7.086,7.085,7.086c3.974,0,6.923-3.24,7.09-7.086C161.156,39.872,157.899,39.876,157.81,41.968z"/>
	</g>
	<g>
		<g>
			<path fill="#4EC4D0" d="M32.712,33.84c-0.486,9.025-13.518,9.025-14.004,0c-0.213-3.961,3.353-6.805,7.002-7.001
				C29.671,26.625,32.516,30.191,32.712,33.84c0.078,1.443,2.328,1.451,2.25,0c-0.642-11.916-17.862-11.916-18.504,0
				c-0.282,5.227,4.439,8.993,9.252,9.252c5.227,0.281,8.992-4.44,9.251-9.252C35.041,32.39,32.79,32.397,32.712,33.84z"/>
		</g>
	</g>
	<g>
		<g>
			<circle fill="#FFFFFF" cx="77.094" cy="24.763" r="1.108"/>
			<circle fill="#FFFFFF" cx="86.131" cy="24.763" r="1.108"/>
			<circle fill="#FFFFFF" cx="95.169" cy="24.763" r="1.108"/>
			<circle fill="#FFFFFF" cx="104.205" cy="24.763" r="1.108"/>
			<circle fill="#FFFFFF" cx="113.244" cy="24.763" r="1.108"/>
			<circle fill="#FFFFFF" cx="122.281" cy="24.763" r="1.107"/>
			<circle fill="#FFFFFF" cx="131.319" cy="24.763" r="1.108"/>
		</g>
		<g>
			<circle fill="#FFFFFF" cx="77.094" cy="30.028" r="1.108"/>
			<circle fill="#FFFFFF" cx="86.131" cy="30.028" r="1.108"/>
			<circle fill="#FFFFFF" cx="95.169" cy="30.028" r="1.108"/>
			<circle fill="#FFFFFF" cx="104.205" cy="30.028" r="1.108"/>
			<circle fill="#FFFFFF" cx="113.244" cy="30.028" r="1.108"/>
			<circle fill="#FFFFFF" cx="122.281" cy="30.028" r="1.107"/>
			<circle fill="#FFFFFF" cx="131.319" cy="30.028" r="1.108"/>
		</g>
		<g>
			<circle fill="#FFFFFF" cx="77.094" cy="35.291" r="1.108"/>
			<circle fill="#FFFFFF" cx="86.131" cy="35.291" r="1.108"/>
			<circle fill="#FFFFFF" cx="95.169" cy="35.291" r="1.108"/>
			<circle fill="#FFFFFF" cx="104.205" cy="35.291" r="1.108"/>
			<circle fill="#FFFFFF" cx="113.244" cy="35.291" r="1.108"/>
			<circle fill="#FFFFFF" cx="122.281" cy="35.291" r="1.107"/>
			<circle fill="#FFFFFF" cx="131.319" cy="35.291" r="1.108"/>
		</g>
		<g>
			<circle fill="#FFFFFF" cx="77.094" cy="40.555" r="1.108"/>
			<circle fill="#FFFFFF" cx="86.131" cy="40.555" r="1.108"/>
			<circle fill="#FFFFFF" cx="95.169" cy="40.555" r="1.108"/>
			<circle fill="#FFFFFF" cx="104.205" cy="40.555" r="1.108"/>
			<circle fill="#FFFFFF" cx="113.244" cy="40.555" r="1.108"/>
			<circle fill="#FFFFFF" cx="122.281" cy="40.555" r="1.107"/>
			<circle fill="#FFFFFF" cx="131.319" cy="40.555" r="1.108"/>
		</g>
	</g>
	<polygon fill="#F18821" points="74.091,2.795 81.854,13.491 69.261,10.386 	"/>
	<polygon fill="#4EC4D0" points="84.926,2.424 83.955,11.949 78.523,3.286 	"/>
	<polygon fill="#4EC4D0" points="70.81,14.036 80.303,15.284 71.485,20.462 	"/>
	<g>
		<path fill="#FFFFFF" d="M25.196,46.471h1.574v10.785h5.212v1.31h-6.786V46.471z"/>
		<path fill="#FFFFFF" d="M42.8,52.895h-4.742v4.36h5.284v1.31h-6.858V46.471h6.587v1.31h-5.013v3.822H42.8V52.895z"/>
		<path fill="#FFFFFF" d="M50.107,54.761l-1.267,3.804h-1.628l4.144-12.095h1.9l4.163,12.095h-1.683l-1.303-3.804H50.107z
			 M54.106,53.541l-1.194-3.481c-0.271-0.789-0.452-1.507-0.633-2.207h-0.036c-0.181,0.718-0.38,1.454-0.615,2.189l-1.194,3.499
			H54.106z"/>
		<path fill="#FFFFFF" d="M61.957,46.632c0.796-0.162,1.936-0.251,3.022-0.251c1.683,0,2.769,0.305,3.529,0.987
			c0.616,0.538,0.959,1.364,0.959,2.297c0,1.597-1.014,2.656-2.298,3.086v0.054c0.941,0.323,1.502,1.185,1.792,2.44
			c0.398,1.687,0.688,2.853,0.941,3.32h-1.628c-0.199-0.341-0.471-1.382-0.814-2.889c-0.362-1.668-1.014-2.297-2.443-2.351h-1.484
			v5.24h-1.574V46.632z M63.531,52.142h1.611c1.683,0,2.75-0.916,2.75-2.297c0-1.562-1.14-2.243-2.805-2.261
			c-0.76,0-1.303,0.072-1.557,0.144V52.142z"/>
		<path fill="#FFFFFF" d="M74.439,58.565V46.471h1.719l3.909,6.119c0.905,1.418,1.611,2.692,2.19,3.93l0.036-0.018
			c-0.145-1.615-0.181-3.086-0.181-4.971v-5.061h1.484v12.095h-1.592l-3.873-6.137c-0.85-1.346-1.665-2.728-2.28-4.038l-0.055,0.018
			c0.091,1.525,0.127,2.979,0.127,4.988v5.168H74.439z"/>
	</g>
	<g>
		<path fill="#FFC908" d="M25.292,62.458h2.46v12.649c0,5.02-2.488,6.563-5.768,6.563c-0.905,0-2.007-0.196-2.629-0.449l0.367-1.991
			c0.509,0.196,1.244,0.365,2.064,0.365c2.205,0,3.506-0.981,3.506-4.684V62.458z"/>
		<path fill="#FFC908" d="M39.342,81.361l-0.198-1.711h-0.085c-0.763,1.065-2.234,2.02-4.185,2.02c-2.771,0-4.185-1.936-4.185-3.898
			c0-3.281,2.94-5.076,8.228-5.048v-0.28c0-1.122-0.311-3.141-3.11-3.141c-1.272,0-2.602,0.393-3.563,1.01l-0.566-1.627
			c1.131-0.729,2.771-1.206,4.496-1.206c4.185,0,5.202,2.833,5.202,5.553v5.077c0,1.178,0.057,2.327,0.227,3.253H39.342z
			 M38.974,74.434c-2.714-0.056-5.796,0.42-5.796,3.057c0,1.599,1.075,2.355,2.347,2.355c1.781,0,2.912-1.122,3.308-2.271
			c0.084-0.253,0.141-0.533,0.141-0.785V74.434z"/>
		<path fill="#FFC908" d="M46.125,67.787l2.686,7.629c0.453,1.233,0.82,2.355,1.103,3.478h0.085
			c0.311-1.122,0.707-2.244,1.159-3.478l2.658-7.629h2.602l-5.372,13.574h-2.375l-5.203-13.574H46.125z"/>
		<path fill="#FFC908" d="M66.224,81.361l-0.198-1.711h-0.085c-0.764,1.065-2.234,2.02-4.185,2.02c-2.771,0-4.185-1.936-4.185-3.898
			c0-3.281,2.94-5.076,8.228-5.048v-0.28c0-1.122-0.311-3.141-3.11-3.141c-1.272,0-2.602,0.393-3.563,1.01l-0.566-1.627
			c1.131-0.729,2.771-1.206,4.496-1.206c4.185,0,5.202,2.833,5.202,5.553v5.077c0,1.178,0.057,2.327,0.227,3.253H66.224z
			 M65.856,74.434c-2.714-0.056-5.796,0.42-5.796,3.057c0,1.599,1.075,2.355,2.347,2.355c1.781,0,2.912-1.122,3.308-2.271
			c0.084-0.253,0.141-0.533,0.141-0.785V74.434z"/>
		<path fill="#FFC908" d="M72.017,78.389c1.103,0.673,2.714,1.233,4.411,1.233c2.517,0,3.987-1.317,3.987-3.225
			c0-1.767-1.018-2.777-3.591-3.758c-3.11-1.094-5.033-2.692-5.033-5.357c0-2.945,2.46-5.132,6.164-5.132
			c1.951,0,3.365,0.449,4.213,0.926l-0.678,1.991c-0.622-0.336-1.895-0.897-3.619-0.897c-2.602,0-3.591,1.542-3.591,2.833
			c0,1.767,1.16,2.636,3.789,3.646c3.223,1.234,4.863,2.776,4.863,5.553c0,2.916-2.177,5.44-6.673,5.44
			c-1.838,0-3.845-0.532-4.863-1.206L72.017,78.389z"/>
		<path fill="#FFC908" d="M96.131,80.856c-0.65,0.337-2.092,0.785-3.93,0.785c-4.128,0-6.814-2.776-6.814-6.927
			c0-4.179,2.884-7.208,7.352-7.208c1.47,0,2.771,0.365,3.45,0.701l-0.565,1.907c-0.594-0.337-1.527-0.646-2.884-0.646
			c-3.139,0-4.835,2.3-4.835,5.133c0,3.141,2.036,5.076,4.75,5.076c1.414,0,2.347-0.364,3.054-0.673L96.131,80.856z"/>
		<path fill="#FFC908" d="M99.04,72.022c0-1.599-0.028-2.973-0.113-4.235h2.177l0.085,2.665h0.113
			c0.622-1.823,2.121-2.973,3.789-2.973c0.283,0,0.481,0.028,0.707,0.084v2.328c-0.254-0.056-0.509-0.084-0.848-0.084
			c-1.753,0-2.997,1.318-3.336,3.169c-0.057,0.336-0.113,0.729-0.113,1.15v7.236h-2.46V72.022z"/>
		<path fill="#FFC908" d="M111.167,63.973c0.028,0.841-0.594,1.514-1.583,1.514c-0.876,0-1.499-0.673-1.499-1.514
			c0-0.87,0.65-1.542,1.555-1.542C110.573,62.431,111.167,63.104,111.167,63.973z M108.396,81.361V67.787h2.488v13.574H108.396z"/>
		<path fill="#FFC908" d="M115.01,72.218c0-1.739-0.057-3.141-0.113-4.431h2.233l0.113,2.328h0.057
			c1.018-1.655,2.629-2.637,4.863-2.637c3.308,0,5.796,2.777,5.796,6.899c0,4.88-2.997,7.292-6.22,7.292
			c-1.81,0-3.393-0.785-4.213-2.132h-0.057v7.376h-2.46V72.218z M117.47,75.836c0,0.365,0.057,0.701,0.113,1.01
			c0.452,1.711,1.951,2.889,3.732,2.889c2.63,0,4.156-2.131,4.156-5.244c0-2.721-1.442-5.048-4.071-5.048
			c-1.696,0-3.28,1.206-3.761,3.057c-0.084,0.309-0.169,0.673-0.169,1.01V75.836z"/>
		<path fill="#FFC908" d="M134.091,63.889v3.898h3.563v1.879h-3.563v7.32c0,1.683,0.48,2.636,1.866,2.636
			c0.65,0,1.131-0.084,1.442-0.168l0.112,1.852c-0.48,0.196-1.244,0.336-2.205,0.336c-1.159,0-2.092-0.364-2.686-1.037
			c-0.707-0.729-0.961-1.936-0.961-3.534v-7.404h-2.121v-1.879h2.121v-3.253L134.091,63.889z"/>
	</g>
	
		<rect x="214.296" y="26.912" fill="none" stroke="#29393B" stroke-width="3" stroke-miterlimit="10" width="46.327" height="49.123"/>
</g>
<g>
</g>
<g>
</g>
<g>
</g>
<g>
</g>
<g>
</g>
<g>
</g>
</svg>
