<svg width="133" height="133" xmlns="http://www.w3.org/2000/svg" xmlns:xlink="http://www.w3.org/1999/xlink" overflow="hidden"><defs><clipPath id="clip0"><rect x="574" y="209" width="133" height="133"/></clipPath></defs><g clip-path="url(#clip0)" transform="translate(-574 -209)"><path d="M640.471 222.854C611.411 222.854 587.854 246.412 587.854 275.471 587.854 304.53 611.411 328.088 640.471 328.088 669.53 328.088 693.088 304.53 693.088 275.471 693.088 275.47 693.088 275.468 693.088 275.467 693.098 246.42 669.558 222.864 640.511 222.854 640.498 222.854 640.484 222.854 640.471 222.854ZM653.217 277.984C645.551 285.636 637.839 293.356 630.08 301.144 623.487 294.52 616.879 287.912 610.255 281.319L616.879 274.695 630.08 287.897C636.489 281.395 642.862 274.94 649.199 268.53 655.532 262.121 659.036 258.681 665.604 252.333 665.788 252.149 665.986 251.966 666.201 251.779 666.409 251.602 666.595 251.402 666.755 251.18L673.472 257.804C665.67 265.562 660.882 270.328 653.215 277.98Z" fill="#FFFFFF"/></g></svg>