<?xml version="1.0" encoding="utf-8"?>
<!-- Generator: Adobe Illustrator 16.0.0, SVG Export Plug-In . SVG Version: 6.00 Build 0)  -->
<!DOCTYPE svg PUBLIC "-//W3C//DTD SVG 1.1//EN" "http://www.w3.org/Graphics/SVG/1.1/DTD/svg11.dtd">
<svg version="1.1" id="Layer_1" xmlns="http://www.w3.org/2000/svg" xmlns:xlink="http://www.w3.org/1999/xlink" x="0px" y="0px"
	 width="265px" height="148px" viewBox="0 0 265 148" enable-background="new 0 0 265 148" xml:space="preserve">
<rect x="-2.943" y="-2.906" fill="#FFFFFF" width="269.887" height="151.812"/>
<polygon fill="#DB1C4B" points="189.095,49.505 130.47,-2.653 247.291,-2.653 "/>
<path fill="#FFFFFF" d="M162.03,18.888c-0.486,0-0.881-0.384-0.881-0.857c0-0.473,0.395-0.857,0.881-0.857s0.881,0.384,0.881,0.857
	C162.911,18.504,162.517,18.888,162.03,18.888"/>
<path fill="#FFFFFF" d="M162.03,23.913c-0.486,0-0.881-0.384-0.881-0.857s0.395-0.857,0.881-0.857s0.881,0.384,0.881,0.857
	S162.517,23.913,162.03,23.913"/>
<path fill="#FFFFFF" d="M162.03,28.938c-0.486,0-0.881-0.384-0.881-0.857c0-0.474,0.395-0.857,0.881-0.857s0.881,0.384,0.881,0.857
	C162.911,28.554,162.517,28.938,162.03,28.938"/>
<path fill="#FFFFFF" d="M162.03,33.963c-0.486,0-0.881-0.383-0.881-0.857s0.395-0.857,0.881-0.857s0.881,0.384,0.881,0.857
	S162.517,33.963,162.03,33.963"/>
<path fill="#FFFFFF" d="M162.03,38.988c-0.486,0-0.881-0.384-0.881-0.857s0.395-0.857,0.881-0.857s0.881,0.383,0.881,0.857
	S162.517,38.988,162.03,38.988"/>
<path fill="#FFFFFF" d="M162.03,44.014c-0.486,0-0.881-0.384-0.881-0.857c0-0.474,0.395-0.857,0.881-0.857s0.881,0.384,0.881,0.857
	C162.911,43.629,162.517,44.014,162.03,44.014"/>
<path fill="#FFFFFF" d="M162.03,49.039c-0.486,0-0.881-0.384-0.881-0.857c0-0.474,0.395-0.857,0.881-0.857s0.881,0.384,0.881,0.857
	C162.911,48.655,162.517,49.039,162.03,49.039"/>
<path fill="#FFFFFF" d="M162.03,54.063c-0.486,0-0.881-0.383-0.881-0.857s0.395-0.857,0.881-0.857s0.881,0.384,0.881,0.857
	S162.517,54.063,162.03,54.063"/>
<path fill="#FFFFFF" d="M162.03,59.089c-0.486,0-0.881-0.384-0.881-0.857s0.395-0.857,0.881-0.857s0.881,0.383,0.881,0.857
	S162.517,59.089,162.03,59.089"/>
<path fill="#FFFFFF" d="M157.244,18.888c-0.487,0-0.882-0.384-0.882-0.857c0-0.473,0.395-0.857,0.882-0.857
	c0.486,0,0.881,0.384,0.881,0.857C158.125,18.504,157.73,18.888,157.244,18.888"/>
<path fill="#FFFFFF" d="M157.244,23.913c-0.487,0-0.882-0.384-0.882-0.857s0.395-0.857,0.882-0.857c0.486,0,0.881,0.384,0.881,0.857
	S157.73,23.913,157.244,23.913"/>
<path fill="#FFFFFF" d="M157.244,28.938c-0.487,0-0.882-0.384-0.882-0.857s0.395-0.857,0.882-0.857c0.486,0,0.881,0.383,0.881,0.857
	S157.73,28.938,157.244,28.938"/>
<path fill="#FFFFFF" d="M157.244,33.963c-0.487,0-0.882-0.383-0.882-0.857s0.395-0.857,0.882-0.857c0.486,0,0.881,0.384,0.881,0.857
	S157.73,33.963,157.244,33.963"/>
<path fill="#FFFFFF" d="M157.244,38.988c-0.487,0-0.882-0.384-0.882-0.857s0.395-0.857,0.882-0.857c0.486,0,0.881,0.383,0.881,0.857
	S157.73,38.988,157.244,38.988"/>
<path fill="#FFFFFF" d="M157.244,44.014c-0.487,0-0.882-0.384-0.882-0.857c0-0.474,0.395-0.857,0.882-0.857
	c0.486,0,0.881,0.384,0.881,0.857C158.125,43.629,157.73,44.014,157.244,44.014"/>
<path fill="#FFFFFF" d="M157.244,49.039c-0.487,0-0.882-0.384-0.882-0.857c0-0.474,0.395-0.857,0.882-0.857
	c0.486,0,0.881,0.384,0.881,0.857C158.125,48.655,157.73,49.039,157.244,49.039"/>
<path fill="#FFFFFF" d="M157.244,54.063c-0.487,0-0.882-0.383-0.882-0.857s0.395-0.857,0.882-0.857c0.486,0,0.881,0.384,0.881,0.857
	S157.73,54.063,157.244,54.063"/>
<path fill="#FFFFFF" d="M157.244,59.089c-0.487,0-0.882-0.384-0.882-0.857s0.395-0.857,0.882-0.857c0.486,0,0.881,0.383,0.881,0.857
	S157.73,59.089,157.244,59.089"/>
<path fill="#FFFFFF" d="M172.229,18.888c-0.486,0-0.881-0.384-0.881-0.857c0-0.473,0.395-0.857,0.881-0.857s0.881,0.384,0.881,0.857
	C173.109,18.504,172.715,18.888,172.229,18.888"/>
<path fill="#FFFFFF" d="M172.229,23.913c-0.486,0-0.881-0.384-0.881-0.857s0.395-0.857,0.881-0.857s0.881,0.384,0.881,0.857
	S172.715,23.913,172.229,23.913"/>
<path fill="#FFFFFF" d="M172.229,28.938c-0.486,0-0.881-0.384-0.881-0.857c0-0.474,0.395-0.857,0.881-0.857s0.881,0.384,0.881,0.857
	C173.109,28.554,172.715,28.938,172.229,28.938"/>
<path fill="#FFFFFF" d="M172.229,33.963c-0.486,0-0.881-0.383-0.881-0.857s0.395-0.857,0.881-0.857s0.881,0.384,0.881,0.857
	S172.715,33.963,172.229,33.963"/>
<path fill="#FFFFFF" d="M172.229,38.988c-0.486,0-0.881-0.384-0.881-0.857s0.395-0.857,0.881-0.857s0.881,0.383,0.881,0.857
	S172.715,38.988,172.229,38.988"/>
<path fill="#FFFFFF" d="M172.229,44.014c-0.486,0-0.881-0.384-0.881-0.857c0-0.474,0.395-0.857,0.881-0.857s0.881,0.384,0.881,0.857
	C173.109,43.629,172.715,44.014,172.229,44.014"/>
<path fill="#FFFFFF" d="M172.229,49.039c-0.486,0-0.881-0.384-0.881-0.857c0-0.474,0.395-0.857,0.881-0.857s0.881,0.384,0.881,0.857
	C173.109,48.655,172.715,49.039,172.229,49.039"/>
<path fill="#FFFFFF" d="M172.229,54.063c-0.486,0-0.881-0.383-0.881-0.857s0.395-0.857,0.881-0.857s0.881,0.384,0.881,0.857
	S172.715,54.063,172.229,54.063"/>
<path fill="#FFFFFF" d="M172.229,59.089c-0.486,0-0.881-0.384-0.881-0.857s0.395-0.857,0.881-0.857s0.881,0.383,0.881,0.857
	S172.715,59.089,172.229,59.089"/>
<path fill="#FFFFFF" d="M167.442,18.888c-0.487,0-0.881-0.384-0.881-0.857c0-0.473,0.394-0.857,0.881-0.857
	c0.486,0,0.881,0.384,0.881,0.857C168.323,18.504,167.929,18.888,167.442,18.888"/>
<path fill="#FFFFFF" d="M167.442,23.913c-0.487,0-0.881-0.384-0.881-0.857s0.394-0.857,0.881-0.857c0.486,0,0.881,0.384,0.881,0.857
	S167.929,23.913,167.442,23.913"/>
<path fill="#FFFFFF" d="M167.442,28.938c-0.487,0-0.881-0.384-0.881-0.857s0.394-0.857,0.881-0.857c0.486,0,0.881,0.383,0.881,0.857
	S167.929,28.938,167.442,28.938"/>
<path fill="#FFFFFF" d="M167.442,33.963c-0.487,0-0.881-0.383-0.881-0.857s0.394-0.857,0.881-0.857c0.486,0,0.881,0.384,0.881,0.857
	S167.929,33.963,167.442,33.963"/>
<path fill="#FFFFFF" d="M167.442,38.988c-0.487,0-0.881-0.384-0.881-0.857s0.394-0.857,0.881-0.857c0.486,0,0.881,0.383,0.881,0.857
	S167.929,38.988,167.442,38.988"/>
<path fill="#FFFFFF" d="M167.442,44.014c-0.487,0-0.881-0.384-0.881-0.857c0-0.474,0.394-0.857,0.881-0.857
	c0.486,0,0.881,0.384,0.881,0.857C168.323,43.629,167.929,44.014,167.442,44.014"/>
<path fill="#FFFFFF" d="M167.442,49.039c-0.487,0-0.881-0.384-0.881-0.857c0-0.474,0.394-0.857,0.881-0.857
	c0.486,0,0.881,0.384,0.881,0.857C168.323,48.655,167.929,49.039,167.442,49.039"/>
<path fill="#FFFFFF" d="M167.442,54.063c-0.487,0-0.881-0.383-0.881-0.857s0.394-0.857,0.881-0.857c0.486,0,0.881,0.384,0.881,0.857
	S167.929,54.063,167.442,54.063"/>
<path fill="#FFFFFF" d="M167.442,59.089c-0.487,0-0.881-0.384-0.881-0.857s0.394-0.857,0.881-0.857c0.486,0,0.881,0.383,0.881,0.857
	S167.929,59.089,167.442,59.089"/>
<path fill="#FFFFFF" d="M182.346,18.888c-0.486,0-0.881-0.384-0.881-0.857c0-0.473,0.395-0.857,0.881-0.857s0.881,0.384,0.881,0.857
	C183.227,18.504,182.832,18.888,182.346,18.888"/>
<path fill="#FFFFFF" d="M182.346,23.913c-0.486,0-0.881-0.384-0.881-0.857s0.395-0.857,0.881-0.857s0.881,0.384,0.881,0.857
	S182.832,23.913,182.346,23.913"/>
<path fill="#FFFFFF" d="M182.346,28.938c-0.486,0-0.881-0.384-0.881-0.857c0-0.474,0.395-0.857,0.881-0.857s0.881,0.384,0.881,0.857
	C183.227,28.554,182.832,28.938,182.346,28.938"/>
<path fill="#FFFFFF" d="M182.346,33.963c-0.486,0-0.881-0.383-0.881-0.857s0.395-0.857,0.881-0.857s0.881,0.384,0.881,0.857
	S182.832,33.963,182.346,33.963"/>
<path fill="#FFFFFF" d="M182.346,38.988c-0.486,0-0.881-0.384-0.881-0.857s0.395-0.857,0.881-0.857s0.881,0.383,0.881,0.857
	S182.832,38.988,182.346,38.988"/>
<path fill="#FFFFFF" d="M182.346,44.014c-0.486,0-0.881-0.384-0.881-0.857c0-0.474,0.395-0.857,0.881-0.857s0.881,0.384,0.881,0.857
	C183.227,43.629,182.832,44.014,182.346,44.014"/>
<path fill="#FFFFFF" d="M182.346,49.039c-0.486,0-0.881-0.384-0.881-0.857c0-0.474,0.395-0.857,0.881-0.857s0.881,0.384,0.881,0.857
	C183.227,48.655,182.832,49.039,182.346,49.039"/>
<path fill="#FFFFFF" d="M182.346,54.063c-0.486,0-0.881-0.383-0.881-0.857s0.395-0.857,0.881-0.857s0.881,0.384,0.881,0.857
	S182.832,54.063,182.346,54.063"/>
<path fill="#FFFFFF" d="M182.346,59.089c-0.486,0-0.881-0.384-0.881-0.857s0.395-0.857,0.881-0.857s0.881,0.383,0.881,0.857
	S182.832,59.089,182.346,59.089"/>
<path fill="#FFFFFF" d="M177.56,18.888c-0.486,0-0.881-0.384-0.881-0.857c0-0.473,0.395-0.857,0.881-0.857s0.881,0.384,0.881,0.857
	C178.44,18.504,178.046,18.888,177.56,18.888"/>
<path fill="#FFFFFF" d="M177.56,23.913c-0.486,0-0.881-0.384-0.881-0.857s0.395-0.857,0.881-0.857s0.881,0.384,0.881,0.857
	S178.046,23.913,177.56,23.913"/>
<path fill="#FFFFFF" d="M177.56,28.938c-0.486,0-0.881-0.384-0.881-0.857s0.395-0.857,0.881-0.857s0.881,0.383,0.881,0.857
	S178.046,28.938,177.56,28.938"/>
<path fill="#FFFFFF" d="M177.56,33.963c-0.486,0-0.881-0.383-0.881-0.857s0.395-0.857,0.881-0.857s0.881,0.384,0.881,0.857
	S178.046,33.963,177.56,33.963"/>
<path fill="#FFFFFF" d="M177.56,38.988c-0.486,0-0.881-0.384-0.881-0.857s0.395-0.857,0.881-0.857s0.881,0.383,0.881,0.857
	S178.046,38.988,177.56,38.988"/>
<path fill="#FFFFFF" d="M177.56,44.014c-0.486,0-0.881-0.384-0.881-0.857c0-0.474,0.395-0.857,0.881-0.857s0.881,0.384,0.881,0.857
	C178.44,43.629,178.046,44.014,177.56,44.014"/>
<path fill="#FFFFFF" d="M177.56,49.039c-0.486,0-0.881-0.384-0.881-0.857c0-0.474,0.395-0.857,0.881-0.857s0.881,0.384,0.881,0.857
	C178.44,48.655,178.046,49.039,177.56,49.039"/>
<path fill="#FFFFFF" d="M177.56,54.063c-0.486,0-0.881-0.383-0.881-0.857s0.395-0.857,0.881-0.857s0.881,0.384,0.881,0.857
	S178.046,54.063,177.56,54.063"/>
<path fill="#FFFFFF" d="M177.56,59.089c-0.486,0-0.881-0.384-0.881-0.857s0.395-0.857,0.881-0.857s0.881,0.383,0.881,0.857
	S178.046,59.089,177.56,59.089"/>
<path fill="#FFFFFF" d="M192.122,18.888c-0.486,0-0.881-0.384-0.881-0.857c0-0.473,0.395-0.857,0.881-0.857
	c0.487,0,0.882,0.384,0.882,0.857C193.004,18.504,192.609,18.888,192.122,18.888"/>
<path fill="#FFFFFF" d="M192.122,23.913c-0.486,0-0.881-0.384-0.881-0.857s0.395-0.857,0.881-0.857c0.487,0,0.882,0.384,0.882,0.857
	S192.609,23.913,192.122,23.913"/>
<path fill="#FFFFFF" d="M192.122,28.938c-0.486,0-0.881-0.384-0.881-0.857c0-0.474,0.395-0.857,0.881-0.857
	c0.487,0,0.882,0.384,0.882,0.857C193.004,28.554,192.609,28.938,192.122,28.938"/>
<path fill="#FFFFFF" d="M192.122,33.963c-0.486,0-0.881-0.383-0.881-0.857s0.395-0.857,0.881-0.857c0.487,0,0.882,0.384,0.882,0.857
	S192.609,33.963,192.122,33.963"/>
<path fill="#FFFFFF" d="M192.122,38.988c-0.486,0-0.881-0.384-0.881-0.857s0.395-0.857,0.881-0.857c0.487,0,0.882,0.383,0.882,0.857
	S192.609,38.988,192.122,38.988"/>
<path fill="#FFFFFF" d="M192.122,44.014c-0.486,0-0.881-0.384-0.881-0.857c0-0.474,0.395-0.857,0.881-0.857
	c0.487,0,0.882,0.384,0.882,0.857C193.004,43.629,192.609,44.014,192.122,44.014"/>
<path fill="#FFFFFF" d="M192.122,49.039c-0.486,0-0.881-0.384-0.881-0.857c0-0.474,0.395-0.857,0.881-0.857
	c0.487,0,0.882,0.384,0.882,0.857C193.004,48.655,192.609,49.039,192.122,49.039"/>
<path fill="#FFFFFF" d="M192.122,54.063c-0.486,0-0.881-0.383-0.881-0.857s0.395-0.857,0.881-0.857c0.487,0,0.882,0.384,0.882,0.857
	S192.609,54.063,192.122,54.063"/>
<path fill="#FFFFFF" d="M192.122,59.089c-0.486,0-0.881-0.384-0.881-0.857s0.395-0.857,0.881-0.857c0.487,0,0.882,0.383,0.882,0.857
	S192.609,59.089,192.122,59.089"/>
<path fill="#FFFFFF" d="M187.336,18.888c-0.486,0-0.881-0.384-0.881-0.857c0-0.473,0.395-0.857,0.881-0.857
	c0.487,0,0.881,0.384,0.881,0.857C188.217,18.504,187.823,18.888,187.336,18.888"/>
<path fill="#FFFFFF" d="M187.336,23.913c-0.486,0-0.881-0.384-0.881-0.857s0.395-0.857,0.881-0.857c0.487,0,0.881,0.384,0.881,0.857
	S187.823,23.913,187.336,23.913"/>
<path fill="#FFFFFF" d="M187.336,28.938c-0.486,0-0.881-0.384-0.881-0.857s0.395-0.857,0.881-0.857c0.487,0,0.881,0.383,0.881,0.857
	S187.823,28.938,187.336,28.938"/>
<path fill="#FFFFFF" d="M187.336,33.963c-0.486,0-0.881-0.383-0.881-0.857s0.395-0.857,0.881-0.857c0.487,0,0.881,0.384,0.881,0.857
	S187.823,33.963,187.336,33.963"/>
<path fill="#FFFFFF" d="M187.336,38.988c-0.486,0-0.881-0.384-0.881-0.857s0.395-0.857,0.881-0.857c0.487,0,0.881,0.383,0.881,0.857
	S187.823,38.988,187.336,38.988"/>
<path fill="#FFFFFF" d="M187.336,44.014c-0.486,0-0.881-0.384-0.881-0.857c0-0.474,0.395-0.857,0.881-0.857
	c0.487,0,0.881,0.384,0.881,0.857C188.217,43.629,187.823,44.014,187.336,44.014"/>
<path fill="#FFFFFF" d="M187.336,49.039c-0.486,0-0.881-0.384-0.881-0.857c0-0.474,0.395-0.857,0.881-0.857
	c0.487,0,0.881,0.384,0.881,0.857C188.217,48.655,187.823,49.039,187.336,49.039"/>
<path fill="#FFFFFF" d="M187.336,54.063c-0.486,0-0.881-0.383-0.881-0.857s0.395-0.857,0.881-0.857c0.487,0,0.881,0.384,0.881,0.857
	S187.823,54.063,187.336,54.063"/>
<path fill="#FFFFFF" d="M187.336,59.089c-0.486,0-0.881-0.384-0.881-0.857s0.395-0.857,0.881-0.857c0.487,0,0.881,0.383,0.881,0.857
	S187.823,59.089,187.336,59.089"/>
<path fill="#FFFFFF" d="M201.592,18.888c-0.486,0-0.881-0.384-0.881-0.857c0-0.473,0.395-0.857,0.881-0.857s0.881,0.384,0.881,0.857
	C202.473,18.504,202.078,18.888,201.592,18.888"/>
<path fill="#FFFFFF" d="M201.592,23.913c-0.486,0-0.881-0.384-0.881-0.857s0.395-0.857,0.881-0.857s0.881,0.384,0.881,0.857
	S202.078,23.913,201.592,23.913"/>
<path fill="#FFFFFF" d="M201.592,28.938c-0.486,0-0.881-0.384-0.881-0.857c0-0.474,0.395-0.857,0.881-0.857s0.881,0.384,0.881,0.857
	C202.473,28.554,202.078,28.938,201.592,28.938"/>
<path fill="#FFFFFF" d="M201.592,33.963c-0.486,0-0.881-0.383-0.881-0.857s0.395-0.857,0.881-0.857s0.881,0.384,0.881,0.857
	S202.078,33.963,201.592,33.963"/>
<path fill="#FFFFFF" d="M201.592,38.988c-0.486,0-0.881-0.384-0.881-0.857s0.395-0.857,0.881-0.857s0.881,0.383,0.881,0.857
	S202.078,38.988,201.592,38.988"/>
<path fill="#FFFFFF" d="M201.592,44.014c-0.486,0-0.881-0.384-0.881-0.857c0-0.474,0.395-0.857,0.881-0.857s0.881,0.384,0.881,0.857
	C202.473,43.629,202.078,44.014,201.592,44.014"/>
<path fill="#FFFFFF" d="M201.592,49.039c-0.486,0-0.881-0.384-0.881-0.857c0-0.474,0.395-0.857,0.881-0.857s0.881,0.384,0.881,0.857
	C202.473,48.655,202.078,49.039,201.592,49.039"/>
<path fill="#FFFFFF" d="M201.592,54.063c-0.486,0-0.881-0.383-0.881-0.857s0.395-0.857,0.881-0.857s0.881,0.384,0.881,0.857
	S202.078,54.063,201.592,54.063"/>
<path fill="#FFFFFF" d="M201.592,59.089c-0.486,0-0.881-0.384-0.881-0.857s0.395-0.857,0.881-0.857s0.881,0.383,0.881,0.857
	S202.078,59.089,201.592,59.089"/>
<path fill="#FFFFFF" d="M196.806,18.888c-0.486,0-0.881-0.384-0.881-0.857c0-0.473,0.395-0.857,0.881-0.857s0.881,0.384,0.881,0.857
	C197.687,18.504,197.292,18.888,196.806,18.888"/>
<path fill="#FFFFFF" d="M196.806,23.913c-0.486,0-0.881-0.384-0.881-0.857s0.395-0.857,0.881-0.857s0.881,0.384,0.881,0.857
	S197.292,23.913,196.806,23.913"/>
<path fill="#FFFFFF" d="M196.806,28.938c-0.486,0-0.881-0.384-0.881-0.857s0.395-0.857,0.881-0.857s0.881,0.383,0.881,0.857
	S197.292,28.938,196.806,28.938"/>
<path fill="#FFFFFF" d="M196.806,33.963c-0.486,0-0.881-0.383-0.881-0.857s0.395-0.857,0.881-0.857s0.881,0.384,0.881,0.857
	S197.292,33.963,196.806,33.963"/>
<path fill="#FFFFFF" d="M196.806,38.988c-0.486,0-0.881-0.384-0.881-0.857s0.395-0.857,0.881-0.857s0.881,0.383,0.881,0.857
	S197.292,38.988,196.806,38.988"/>
<path fill="#FFFFFF" d="M196.806,44.014c-0.486,0-0.881-0.384-0.881-0.857c0-0.474,0.395-0.857,0.881-0.857s0.881,0.384,0.881,0.857
	C197.687,43.629,197.292,44.014,196.806,44.014"/>
<path fill="#FFFFFF" d="M196.806,49.039c-0.486,0-0.881-0.384-0.881-0.857c0-0.474,0.395-0.857,0.881-0.857s0.881,0.384,0.881,0.857
	C197.687,48.655,197.292,49.039,196.806,49.039"/>
<path fill="#FFFFFF" d="M196.806,54.063c-0.486,0-0.881-0.383-0.881-0.857s0.395-0.857,0.881-0.857s0.881,0.384,0.881,0.857
	S197.292,54.063,196.806,54.063"/>
<path fill="#FFFFFF" d="M196.806,59.089c-0.486,0-0.881-0.384-0.881-0.857s0.395-0.857,0.881-0.857s0.881,0.383,0.881,0.857
	S197.292,59.089,196.806,59.089"/>
<path fill="#FFFFFF" d="M211.119,18.888c-0.486,0-0.881-0.384-0.881-0.857c0-0.473,0.395-0.857,0.881-0.857S212,17.557,212,18.03
	C212,18.504,211.605,18.888,211.119,18.888"/>
<path fill="#FFFFFF" d="M211.119,23.913c-0.486,0-0.881-0.384-0.881-0.857s0.395-0.857,0.881-0.857S212,22.582,212,23.056
	S211.605,23.913,211.119,23.913"/>
<path fill="#FFFFFF" d="M211.119,28.938c-0.486,0-0.881-0.384-0.881-0.857c0-0.474,0.395-0.857,0.881-0.857S212,27.607,212,28.081
	C212,28.554,211.605,28.938,211.119,28.938"/>
<path fill="#FFFFFF" d="M211.119,33.963c-0.486,0-0.881-0.383-0.881-0.857s0.395-0.857,0.881-0.857S212,32.632,212,33.106
	S211.605,33.963,211.119,33.963"/>
<path fill="#FFFFFF" d="M211.119,38.988c-0.486,0-0.881-0.384-0.881-0.857s0.395-0.857,0.881-0.857S212,37.657,212,38.131
	S211.605,38.988,211.119,38.988"/>
<path fill="#FFFFFF" d="M211.119,44.014c-0.486,0-0.881-0.384-0.881-0.857c0-0.474,0.395-0.857,0.881-0.857S212,42.683,212,43.156
	C212,43.629,211.605,44.014,211.119,44.014"/>
<path fill="#FFFFFF" d="M211.119,49.039c-0.486,0-0.881-0.384-0.881-0.857c0-0.474,0.395-0.857,0.881-0.857S212,47.708,212,48.182
	C212,48.655,211.605,49.039,211.119,49.039"/>
<path fill="#FFFFFF" d="M211.119,54.063c-0.486,0-0.881-0.383-0.881-0.857s0.395-0.857,0.881-0.857S212,52.733,212,53.207
	S211.605,54.063,211.119,54.063"/>
<path fill="#FFFFFF" d="M211.119,59.089c-0.486,0-0.881-0.384-0.881-0.857s0.395-0.857,0.881-0.857S212,57.758,212,58.231
	S211.605,59.089,211.119,59.089"/>
<path fill="#FFFFFF" d="M206.333,18.888c-0.487,0-0.881-0.384-0.881-0.857c0-0.473,0.394-0.857,0.881-0.857
	c0.486,0,0.881,0.384,0.881,0.857C207.214,18.504,206.819,18.888,206.333,18.888"/>
<path fill="#FFFFFF" d="M206.333,23.913c-0.487,0-0.881-0.384-0.881-0.857s0.394-0.857,0.881-0.857c0.486,0,0.881,0.384,0.881,0.857
	S206.819,23.913,206.333,23.913"/>
<path fill="#FFFFFF" d="M206.333,28.938c-0.487,0-0.881-0.384-0.881-0.857s0.394-0.857,0.881-0.857c0.486,0,0.881,0.383,0.881,0.857
	S206.819,28.938,206.333,28.938"/>
<path fill="#FFFFFF" d="M206.333,33.963c-0.487,0-0.881-0.383-0.881-0.857s0.394-0.857,0.881-0.857c0.486,0,0.881,0.384,0.881,0.857
	S206.819,33.963,206.333,33.963"/>
<path fill="#FFFFFF" d="M206.333,38.988c-0.487,0-0.881-0.384-0.881-0.857s0.394-0.857,0.881-0.857c0.486,0,0.881,0.383,0.881,0.857
	S206.819,38.988,206.333,38.988"/>
<path fill="#FFFFFF" d="M206.333,44.014c-0.487,0-0.881-0.384-0.881-0.857c0-0.474,0.394-0.857,0.881-0.857
	c0.486,0,0.881,0.384,0.881,0.857C207.214,43.629,206.819,44.014,206.333,44.014"/>
<path fill="#FFFFFF" d="M206.333,49.039c-0.487,0-0.881-0.384-0.881-0.857c0-0.474,0.394-0.857,0.881-0.857
	c0.486,0,0.881,0.384,0.881,0.857C207.214,48.655,206.819,49.039,206.333,49.039"/>
<path fill="#FFFFFF" d="M206.333,54.063c-0.487,0-0.881-0.383-0.881-0.857s0.394-0.857,0.881-0.857c0.486,0,0.881,0.384,0.881,0.857
	S206.819,54.063,206.333,54.063"/>
<path fill="#FFFFFF" d="M206.333,59.089c-0.487,0-0.881-0.384-0.881-0.857s0.394-0.857,0.881-0.857c0.486,0,0.881,0.383,0.881,0.857
	S206.819,59.089,206.333,59.089"/>
<path fill="#FFFFFF" d="M220.618,18.901c-0.486,0-0.881-0.383-0.881-0.857s0.395-0.857,0.881-0.857s0.881,0.384,0.881,0.857
	S221.104,18.901,220.618,18.901"/>
<path fill="#FFFFFF" d="M220.618,23.927c-0.486,0-0.881-0.384-0.881-0.857s0.395-0.857,0.881-0.857s0.881,0.383,0.881,0.857
	S221.104,23.927,220.618,23.927"/>
<path fill="#FFFFFF" d="M220.618,28.952c-0.486,0-0.881-0.383-0.881-0.857s0.395-0.857,0.881-0.857s0.881,0.384,0.881,0.857
	S221.104,28.952,220.618,28.952"/>
<path fill="#FFFFFF" d="M220.618,33.977c-0.486,0-0.881-0.384-0.881-0.857s0.395-0.857,0.881-0.857s0.881,0.383,0.881,0.857
	S221.104,33.977,220.618,33.977"/>
<path fill="#FFFFFF" d="M220.618,39.002c-0.486,0-0.881-0.383-0.881-0.857s0.395-0.857,0.881-0.857s0.881,0.384,0.881,0.857
	S221.104,39.002,220.618,39.002"/>
<path fill="#FFFFFF" d="M220.618,44.027c-0.486,0-0.881-0.384-0.881-0.857c0-0.474,0.395-0.857,0.881-0.857s0.881,0.384,0.881,0.857
	C221.499,43.644,221.104,44.027,220.618,44.027"/>
<path fill="#FFFFFF" d="M220.618,49.052c-0.486,0-0.881-0.383-0.881-0.857s0.395-0.857,0.881-0.857s0.881,0.384,0.881,0.857
	S221.104,49.052,220.618,49.052"/>
<path fill="#FFFFFF" d="M220.618,54.078c-0.486,0-0.881-0.384-0.881-0.857s0.395-0.857,0.881-0.857s0.881,0.384,0.881,0.857
	S221.104,54.078,220.618,54.078"/>
<path fill="#FFFFFF" d="M220.618,59.103c-0.486,0-0.881-0.384-0.881-0.857c0-0.474,0.395-0.857,0.881-0.857s0.881,0.384,0.881,0.857
	C221.499,58.719,221.104,59.103,220.618,59.103"/>
<path fill="#FFFFFF" d="M215.832,18.901c-0.487,0-0.881-0.383-0.881-0.857s0.394-0.857,0.881-0.857c0.486,0,0.881,0.384,0.881,0.857
	S216.318,18.901,215.832,18.901"/>
<path fill="#FFFFFF" d="M215.832,23.927c-0.487,0-0.881-0.384-0.881-0.857s0.394-0.857,0.881-0.857c0.486,0,0.881,0.383,0.881,0.857
	S216.318,23.927,215.832,23.927"/>
<path fill="#FFFFFF" d="M215.832,28.952c-0.487,0-0.881-0.383-0.881-0.857s0.394-0.857,0.881-0.857c0.486,0,0.881,0.384,0.881,0.857
	S216.318,28.952,215.832,28.952"/>
<path fill="#FFFFFF" d="M215.832,33.977c-0.487,0-0.881-0.384-0.881-0.857s0.394-0.857,0.881-0.857c0.486,0,0.881,0.383,0.881,0.857
	S216.318,33.977,215.832,33.977"/>
<path fill="#FFFFFF" d="M215.832,39.002c-0.487,0-0.881-0.383-0.881-0.857s0.394-0.857,0.881-0.857c0.486,0,0.881,0.384,0.881,0.857
	S216.318,39.002,215.832,39.002"/>
<path fill="#FFFFFF" d="M215.832,44.027c-0.487,0-0.881-0.384-0.881-0.857c0-0.474,0.394-0.857,0.881-0.857
	c0.486,0,0.881,0.384,0.881,0.857C216.713,43.644,216.318,44.027,215.832,44.027"/>
<path fill="#FFFFFF" d="M215.832,49.052c-0.487,0-0.881-0.383-0.881-0.857s0.394-0.857,0.881-0.857c0.486,0,0.881,0.384,0.881,0.857
	S216.318,49.052,215.832,49.052"/>
<path fill="#FFFFFF" d="M215.832,54.078c-0.487,0-0.881-0.384-0.881-0.857s0.394-0.857,0.881-0.857c0.486,0,0.881,0.384,0.881,0.857
	S216.318,54.078,215.832,54.078"/>
<path fill="#FFFFFF" d="M215.832,59.103c-0.487,0-0.881-0.384-0.881-0.857c0-0.474,0.394-0.857,0.881-0.857
	c0.486,0,0.881,0.384,0.881,0.857C216.713,58.719,216.318,59.103,215.832,59.103"/>
<polygon fill="#207EC2" points="266.943,151.021 266.943,-2.653 247.532,-2.653 149.987,84.542 80.528,151.021 "/>
<path fill="#FFFFFF" d="M259.547,3.99c-0.463,0-0.838-0.375-0.838-0.838c0-0.462,0.375-0.838,0.838-0.838s0.838,0.375,0.838,0.838
	C260.385,3.615,260.01,3.99,259.547,3.99"/>
<path fill="#FFFFFF" d="M259.547,8.902c-0.463,0-0.838-0.375-0.838-0.838s0.375-0.838,0.838-0.838s0.838,0.375,0.838,0.838
	S260.01,8.902,259.547,8.902"/>
<path fill="#FFFFFF" d="M259.547,13.813c-0.463,0-0.838-0.375-0.838-0.838c0-0.463,0.375-0.838,0.838-0.838s0.838,0.375,0.838,0.838
	C260.385,13.438,260.01,13.813,259.547,13.813"/>
<path fill="#FFFFFF" d="M259.547,18.725c-0.463,0-0.838-0.375-0.838-0.838c0-0.462,0.375-0.837,0.838-0.837s0.838,0.375,0.838,0.837
	C260.385,18.35,260.01,18.725,259.547,18.725"/>
<path fill="#FFFFFF" d="M259.547,23.636c-0.463,0-0.838-0.375-0.838-0.838c0-0.462,0.375-0.838,0.838-0.838s0.838,0.375,0.838,0.838
	C260.385,23.261,260.01,23.636,259.547,23.636"/>
<path fill="#FFFFFF" d="M259.547,28.548c-0.463,0-0.838-0.375-0.838-0.838c0-0.462,0.375-0.837,0.838-0.837s0.838,0.375,0.838,0.837
	C260.385,28.172,260.01,28.548,259.547,28.548"/>
<path fill="#FFFFFF" d="M259.547,33.459c-0.463,0-0.838-0.375-0.838-0.838c0-0.462,0.375-0.838,0.838-0.838s0.838,0.375,0.838,0.838
	C260.385,33.084,260.01,33.459,259.547,33.459"/>
<path fill="#FFFFFF" d="M259.547,38.371c-0.463,0-0.838-0.375-0.838-0.838s0.375-0.838,0.838-0.838s0.838,0.375,0.838,0.838
	S260.01,38.371,259.547,38.371"/>
<path fill="#FFFFFF" d="M259.547,43.282c-0.463,0-0.838-0.375-0.838-0.838s0.375-0.838,0.838-0.838s0.838,0.375,0.838,0.838
	S260.01,43.282,259.547,43.282"/>
<path fill="#FFFFFF" d="M254.995,18.725c-0.463,0-0.838-0.375-0.838-0.838c0-0.462,0.375-0.837,0.838-0.837s0.838,0.375,0.838,0.837
	C255.833,18.35,255.458,18.725,254.995,18.725"/>
<path fill="#FFFFFF" d="M254.995,23.636c-0.463,0-0.838-0.375-0.838-0.838c0-0.462,0.375-0.838,0.838-0.838s0.838,0.375,0.838,0.838
	C255.833,23.261,255.458,23.636,254.995,23.636"/>
<path fill="#FFFFFF" d="M254.995,28.548c-0.463,0-0.838-0.375-0.838-0.838c0-0.462,0.375-0.837,0.838-0.837s0.838,0.375,0.838,0.837
	C255.833,28.172,255.458,28.548,254.995,28.548"/>
<path fill="#FFFFFF" d="M254.995,33.459c-0.463,0-0.838-0.375-0.838-0.838c0-0.462,0.375-0.838,0.838-0.838s0.838,0.375,0.838,0.838
	C255.833,33.084,255.458,33.459,254.995,33.459"/>
<path fill="#FFFFFF" d="M254.995,38.371c-0.463,0-0.838-0.375-0.838-0.838s0.375-0.838,0.838-0.838s0.838,0.375,0.838,0.838
	S255.458,38.371,254.995,38.371"/>
<path fill="#FFFFFF" d="M254.995,43.282c-0.463,0-0.838-0.375-0.838-0.838s0.375-0.838,0.838-0.838s0.838,0.375,0.838,0.838
	S255.458,43.282,254.995,43.282"/>
<path fill="#FFFFFF" d="M254.995,48.193c-0.463,0-0.838-0.375-0.838-0.838c0-0.462,0.375-0.837,0.838-0.837s0.838,0.375,0.838,0.837
	C255.833,47.818,255.458,48.193,254.995,48.193"/>
<path fill="#FFFFFF" d="M254.995,53.105c-0.463,0-0.838-0.375-0.838-0.838c0-0.462,0.375-0.838,0.838-0.838s0.838,0.375,0.838,0.838
	C255.833,52.73,255.458,53.105,254.995,53.105"/>
<path fill="#FFFFFF" d="M254.995,58.017c-0.463,0-0.838-0.375-0.838-0.838s0.375-0.838,0.838-0.838s0.838,0.375,0.838,0.838
	S255.458,58.017,254.995,58.017"/>
<rect x="4.184" y="5.706" fill="#207EC2" width="67.971" height="26.956"/>
<rect x="4.184" y="32.578" fill="#DB1C4B" width="75.065" height="40.101"/>
<g>
	<path fill="#FFFFFF" d="M9.823,12.568h3.046v10.873h5.336v2.549H9.823V12.568z"/>
	<path fill="#FFFFFF" d="M27.982,20.314h-4.938V23.5h5.516v2.489h-8.562V12.568h8.284v2.489h-5.237v2.788h4.938V20.314z"/>
	<path fill="#FFFFFF" d="M33.756,22.545l-0.956,3.445h-3.146l4.102-13.421h3.982l4.162,13.421h-3.266L37.6,22.545H33.756z
		 M37.162,20.275l-0.836-2.848c-0.239-0.796-0.478-1.792-0.677-2.589h-0.04c-0.199,0.797-0.398,1.813-0.617,2.589l-0.797,2.848
		H37.162z"/>
	<path fill="#FFFFFF" d="M43.692,12.748c0.976-0.159,2.429-0.278,4.042-0.278c1.991,0,3.385,0.298,4.341,1.055
		c0.797,0.637,1.235,1.573,1.235,2.808c0,1.712-1.215,2.887-2.37,3.306v0.06c0.936,0.378,1.454,1.274,1.792,2.509
		c0.418,1.513,0.836,3.266,1.095,3.783h-3.106c-0.219-0.378-0.538-1.474-0.936-3.126c-0.358-1.672-0.936-2.13-2.171-2.15h-0.916
		v5.277h-3.007V12.748z M46.699,18.522h1.194c1.514,0,2.41-0.757,2.41-1.932c0-1.234-0.836-1.852-2.23-1.872
		c-0.736,0-1.155,0.06-1.374,0.1V18.522z"/>
	<path fill="#FFFFFF" d="M55.499,25.99V12.568h3.544l2.788,4.918c0.796,1.414,1.593,3.087,2.19,4.6h0.06
		c-0.199-1.772-0.259-3.584-0.259-5.596v-3.923h2.788V25.99h-3.187l-2.867-5.177c-0.796-1.434-1.673-3.166-2.33-4.739l-0.06,0.02
		c0.08,1.772,0.12,3.664,0.12,5.854v4.042H55.499z"/>
</g>
<g>
	<path fill="#FFFFFF" d="M30.3,66.183c-1.134,0.578-3.687,1.198-7.008,1.198c-9.439,0-14.301-5.987-14.301-13.915
		c0-9.497,6.644-14.782,14.908-14.782c3.201,0,5.631,0.661,6.725,1.239l-1.256,4.996c-1.256-0.537-2.998-1.032-5.186-1.032
		c-4.902,0-8.71,3.014-8.71,9.208c0,5.574,3.241,9.084,8.75,9.084c1.864,0,3.93-0.413,5.145-0.909L30.3,66.183z"/>
	<path fill="#FFFFFF" d="M34.882,60.485c1.661,0.867,4.213,1.734,6.846,1.734c2.836,0,4.335-1.197,4.335-3.014
		c0-1.734-1.296-2.725-4.578-3.922c-4.538-1.61-7.495-4.17-7.495-8.217c0-4.749,3.889-8.382,10.331-8.382
		c3.079,0,5.348,0.661,6.968,1.404l-1.377,5.079c-1.094-0.537-3.038-1.321-5.712-1.321s-3.97,1.239-3.97,2.684
		c0,1.775,1.539,2.56,5.064,3.922c4.821,1.817,7.089,4.377,7.089,8.299c0,4.666-3.524,8.63-11.019,8.63
		c-3.12,0-6.198-0.826-7.738-1.693L34.882,60.485z"/>
	<path fill="#FFFFFF" d="M57.087,60.485c1.661,0.867,4.213,1.734,6.847,1.734c2.835,0,4.334-1.197,4.334-3.014
		c0-1.734-1.296-2.725-4.578-3.922c-4.538-1.61-7.495-4.17-7.495-8.217c0-4.749,3.889-8.382,10.331-8.382
		c3.079,0,5.347,0.661,6.968,1.404l-1.377,5.079c-1.094-0.537-3.038-1.321-5.712-1.321s-3.97,1.239-3.97,2.684
		c0,1.775,1.539,2.56,5.064,3.922c4.821,1.817,7.089,4.377,7.089,8.299c0,4.666-3.524,8.63-11.019,8.63
		c-3.12,0-6.198-0.826-7.738-1.693L57.087,60.485z"/>
</g>
<g>
	<defs>
		<rect id="SVGID_1_" x="-2.943" y="-2.906" width="269.887" height="151.812"/>
	</defs>
	<clipPath id="SVGID_2_">
		<use xlink:href="#SVGID_1_"  overflow="visible"/>
	</clipPath>
</g>
<g>
	<defs>
		<rect id="SVGID_3_" x="-2.943" y="-2.906" width="269.887" height="151.812"/>
	</defs>
	<clipPath id="SVGID_4_">
		<use xlink:href="#SVGID_3_"  overflow="visible"/>
	</clipPath>
	<polygon clip-path="url(#SVGID_4_)" fill="#424343" points="128.961,75.154 126.81,73.833 127.129,73.313 128.961,74.437 
		130.956,73.214 132.948,74.437 134.941,73.214 136.934,74.437 138.928,73.214 140.922,74.437 142.756,73.313 143.074,73.833 
		140.922,75.154 138.928,73.932 136.934,75.154 134.941,73.932 132.948,75.154 130.956,73.932 	"/>
	<polygon clip-path="url(#SVGID_4_)" fill="#424343" points="104.924,63.413 103.326,62.217 101.729,63.413 100.13,62.217 
		98.532,63.413 96.755,62.084 97.113,61.606 98.532,62.667 100.13,61.473 101.729,62.667 103.326,61.472 104.924,62.667 
		106.522,61.473 108.121,62.667 109.718,61.473 111.317,62.667 112.916,61.473 114.514,62.667 116.113,61.473 117.71,62.667 
		119.31,61.473 120.908,62.667 122.329,61.606 122.686,62.084 120.908,63.413 119.31,62.217 117.71,63.413 116.113,62.217 
		114.514,63.413 112.916,62.217 111.317,63.413 109.718,62.217 108.121,63.413 106.522,62.217 	"/>
	<path clip-path="url(#SVGID_4_)" fill="#EE6F9A" d="M141.102,46.518c0,2.936-2.38,5.316-5.315,5.316
		c-2.937,0-5.316-2.38-5.316-5.316c0-2.936,2.38-5.316,5.316-5.316C138.722,41.202,141.102,43.583,141.102,46.518"/>
	<path clip-path="url(#SVGID_4_)" fill="#424343" d="M134.14,30.808c-0.899,0-1.631-0.731-1.631-1.63s0.731-1.63,1.631-1.63
		s1.63,0.731,1.63,1.63S135.039,30.808,134.14,30.808 M134.14,28.409c-0.425,0-0.77,0.345-0.77,0.769s0.345,0.769,0.77,0.769
		c0.424,0,0.769-0.345,0.769-0.769S134.563,28.409,134.14,28.409"/>
	<path clip-path="url(#SVGID_4_)" fill="#F16F98" d="M91.584,71.918c0.447,0.447-0.68,2.298-2.516,4.134s-3.687,2.962-4.133,2.516
		s0.68-2.297,2.516-4.133C89.288,72.598,91.138,71.473,91.584,71.918"/>
	<path clip-path="url(#SVGID_4_)" fill="#207EC2" d="M89.069,76.052c-1.836,1.836-3.686,2.962-4.133,2.516l1.617,1.617
		c0.447,0.446,2.297-0.68,4.133-2.516s2.962-3.687,2.516-4.134l-1.617-1.617C92.031,72.365,90.905,74.216,89.069,76.052"/>
	<path clip-path="url(#SVGID_4_)" fill="#424343" d="M86.188,73.171c-1.719,1.72-3.135,3.783-2.516,4.403l1.617,1.617
		c0.62,0.62,2.685-0.797,4.404-2.516c1.719-1.719,3.135-3.783,2.516-4.403l-1.617-1.617C89.972,70.036,87.907,71.451,86.188,73.171
		 M84.373,75.993c0.467-0.769,1.208-1.675,2.086-2.552c0.877-0.877,1.783-1.618,2.551-2.086c0.856-0.521,1.232-0.509,1.311-0.43
		s0.091,0.455-0.43,1.311c-0.468,0.768-1.208,1.674-2.086,2.552c-0.877,0.878-1.784,1.618-2.551,2.086
		c-0.856,0.521-1.232,0.509-1.311,0.43C83.864,77.225,83.852,76.849,84.373,75.993 M91.938,72.543
		c0.079,0.079,0.091,0.455-0.43,1.311c-0.468,0.768-1.208,1.674-2.085,2.552c-0.878,0.877-1.784,1.618-2.552,2.086
		c-0.856,0.521-1.232,0.509-1.311,0.43l-1.227-1.227c0.009-0.002,0.02-0.005,0.03-0.007c0.011-0.002,0.022-0.005,0.033-0.008
		c0.027-0.007,0.055-0.014,0.083-0.022c0.008-0.002,0.017-0.004,0.024-0.007c0.037-0.011,0.074-0.023,0.112-0.037
		c0.009-0.003,0.018-0.007,0.026-0.01c0.03-0.011,0.061-0.022,0.092-0.035c0.012-0.005,0.025-0.01,0.038-0.016
		c0.03-0.012,0.06-0.025,0.091-0.039c0.011-0.005,0.021-0.01,0.032-0.015c0.041-0.019,0.083-0.038,0.125-0.06
		c0.007-0.004,0.014-0.008,0.021-0.011c0.036-0.019,0.071-0.037,0.108-0.057c0.013-0.007,0.027-0.015,0.041-0.021
		c0.032-0.018,0.064-0.036,0.097-0.055c0.013-0.007,0.026-0.015,0.039-0.022c0.044-0.025,0.089-0.052,0.135-0.079
		c0.002-0.002,0.005-0.003,0.007-0.005c0.043-0.026,0.087-0.054,0.131-0.082c0.014-0.009,0.028-0.019,0.042-0.027
		c0.034-0.021,0.068-0.044,0.103-0.067c0.015-0.01,0.029-0.019,0.044-0.029c0.042-0.028,0.085-0.058,0.128-0.087
		c0.005-0.004,0.01-0.007,0.015-0.011c0.048-0.033,0.097-0.068,0.145-0.103c0.014-0.011,0.028-0.021,0.042-0.031
		c0.036-0.025,0.072-0.052,0.108-0.079c0.016-0.012,0.032-0.023,0.047-0.035c0.04-0.03,0.08-0.061,0.12-0.092
		c0.01-0.007,0.019-0.015,0.029-0.021c0.05-0.039,0.1-0.078,0.149-0.117c0.013-0.011,0.026-0.021,0.04-0.032
		c0.038-0.03,0.075-0.061,0.113-0.091c0.016-0.014,0.032-0.026,0.048-0.04c0.039-0.031,0.078-0.063,0.116-0.097
		c0.012-0.01,0.024-0.021,0.037-0.03c0.05-0.042,0.101-0.086,0.151-0.129c0.011-0.01,0.021-0.019,0.032-0.028
		c0.04-0.034,0.08-0.069,0.12-0.104c0.016-0.015,0.032-0.029,0.049-0.044c0.037-0.032,0.074-0.065,0.11-0.1
		c0.015-0.013,0.029-0.025,0.042-0.038c0.05-0.045,0.1-0.092,0.15-0.138c0.007-0.007,0.014-0.014,0.022-0.021
		c0.042-0.04,0.085-0.08,0.128-0.121c0.016-0.015,0.031-0.029,0.046-0.045c0.036-0.033,0.072-0.068,0.107-0.104l0.044-0.043
		c0.049-0.048,0.098-0.096,0.147-0.145c0.048-0.049,0.096-0.098,0.145-0.146c0.015-0.015,0.028-0.029,0.043-0.045
		c0.035-0.035,0.069-0.07,0.104-0.107c0.015-0.016,0.03-0.031,0.044-0.046c0.041-0.043,0.081-0.085,0.121-0.128l0.02-0.021
		c0.046-0.051,0.092-0.101,0.138-0.15c0.013-0.014,0.026-0.028,0.039-0.043c0.033-0.037,0.067-0.073,0.1-0.11
		c0.014-0.017,0.029-0.032,0.043-0.049c0.035-0.04,0.07-0.08,0.105-0.12c0.009-0.01,0.019-0.021,0.028-0.031
		c0.043-0.051,0.086-0.102,0.129-0.151c0.01-0.013,0.021-0.024,0.031-0.037c0.033-0.038,0.064-0.077,0.096-0.116
		c0.014-0.016,0.027-0.031,0.04-0.048c0.031-0.038,0.061-0.075,0.091-0.112c0.011-0.014,0.021-0.027,0.032-0.041
		c0.04-0.049,0.079-0.099,0.117-0.148c0.008-0.01,0.015-0.02,0.022-0.029c0.031-0.04,0.062-0.08,0.091-0.119
		c0.012-0.017,0.024-0.032,0.036-0.048c0.026-0.036,0.053-0.072,0.079-0.108c0.01-0.014,0.021-0.027,0.03-0.041
		c0.035-0.049,0.07-0.098,0.104-0.146c0.003-0.005,0.007-0.011,0.011-0.017c0.03-0.043,0.059-0.085,0.087-0.127
		c0.01-0.016,0.02-0.029,0.03-0.045c0.022-0.033,0.045-0.068,0.067-0.102c0.009-0.015,0.018-0.029,0.027-0.043
		c0.028-0.043,0.055-0.088,0.081-0.13c0.002-0.003,0.003-0.006,0.005-0.009c0.028-0.045,0.054-0.09,0.08-0.135
		c0.007-0.014,0.015-0.026,0.022-0.039c0.019-0.033,0.037-0.064,0.054-0.098c0.008-0.014,0.015-0.027,0.022-0.041
		c0.02-0.036,0.038-0.072,0.056-0.107c0.003-0.008,0.007-0.014,0.011-0.021c0.021-0.042,0.041-0.084,0.06-0.125
		c0.005-0.011,0.01-0.021,0.015-0.032c0.014-0.03,0.027-0.061,0.039-0.091c0.005-0.013,0.011-0.025,0.016-0.037
		c0.012-0.031,0.024-0.062,0.035-0.092c0.003-0.008,0.007-0.018,0.01-0.026c0.013-0.038,0.026-0.075,0.037-0.111
		c0.002-0.009,0.004-0.017,0.007-0.024c0.008-0.028,0.016-0.057,0.022-0.084c0.003-0.011,0.005-0.021,0.007-0.033
		c0.002-0.01,0.005-0.02,0.007-0.029L91.938,72.543z"/>
	<path clip-path="url(#SVGID_4_)" fill="#424343" d="M151.098,37.539c0,0.267-0.216,0.483-0.482,0.483
		c-0.266,0-0.482-0.216-0.482-0.483c0-0.266,0.217-0.482,0.482-0.482C150.882,37.057,151.098,37.273,151.098,37.539"/>
	<polygon clip-path="url(#SVGID_4_)" fill="#EE6F9A" points="105.255,4.388 111.241,6.065 109.563,0.079 	"/>
	<polygon clip-path="url(#SVGID_4_)" fill="#EE6F9A" points="115.073,9.897 113.396,3.911 111.241,6.065 109.086,8.22 	"/>
	<polygon clip-path="url(#SVGID_4_)" fill="#EE6F9A" points="118.905,13.729 117.227,7.743 115.073,9.897 112.918,12.052 	"/>
	
		<rect x="89.778" y="15.8" transform="matrix(0.7071 -0.7071 0.7071 0.7071 12.7837 73.7581)" clip-path="url(#SVGID_4_)" fill="#207EC2" width="11.296" height="11.296"/>
</g>
<g>
	<defs>
		<rect id="SVGID_5_" x="-2.943" y="-2.906" width="269.887" height="151.812"/>
	</defs>
	<clipPath id="SVGID_6_">
		<use xlink:href="#SVGID_5_"  overflow="visible"/>
	</clipPath>
	
		<rect x="151.769" y="71.01" transform="matrix(0.7471 -0.6648 0.6648 0.7471 -6.8891 124.4538)" clip-path="url(#SVGID_6_)" fill="#424343" width="16.652" height="0.539"/>
	
		<rect x="157.848" y="60.09" transform="matrix(0.7528 -0.6582 0.6582 0.7528 1.3461 124.3033)" clip-path="url(#SVGID_6_)" fill="#424343" width="16.653" height="0.539"/>
</g>
<g>
</g>
<g>
	<defs>
		<rect id="SVGID_7_" x="-2.943" y="-2.906" width="269.887" height="151.812"/>
	</defs>
	<clipPath id="SVGID_8_">
		<use xlink:href="#SVGID_7_"  overflow="visible"/>
	</clipPath>
</g>
<g>
</g>
<g>
</g>
<g>
</g>
<g>
</g>
<g>
</g>
<g>
</g>
</svg>
